# xmcd
#
# Track frame offsets:
#	151
#	13858
#	24967
#	37706
#	50027
#	61692
#	72101
#	90708
#	103437
#	118886
#	132179
#	142634
#	152771
#	168048
#	176051
#	196732
#	209061
#	221022
#	234897
#	246080
#
# Disc length: 3471
#
# Revision: 1
# Processed by: cddbd v1.5.1PL0 Copyright (c) Steve Scherf et al.
# Submitted via: dBpowerAMP V4.0
# Normalized: r0:DSETVAR1,TDELIM( - )
#
DISCID=0f0d8d14
DTITLE=Various Artist - Kenny Rogers and Dolly Parton
DYEAR=2002
DGENRE=Country
TTITLE0=Kenny Rogers - Ruby Don't Take Your Love To Town
TTITLE1=Dolly Parton - God Didn't Make Honky Tonk Angels
TTITLE2=Kenny Rogers - Ruben James
TTITLE3=Dolly Parton - Letter To Heaven
TTITLE4=Kenny Rogers - Me And Bobby McGee
TTITLE5=Dolly Parton - Release Me
TTITLE6=Kenny Rogers - The King Of Oak Street
TTITLE7=Dolly Parton - Two Little Orphans
TTITLE8=Kenny Rogers - For The Good Times
TTITLE9=Dolly Parton - Little Blossom
TTITLE10=Kenny Rogers - Where Does Rosie Go
TTITLE11=Dolly Parton - Girl Left Alone
TTITLE12=Kenny Rogers - Conditions
TTITLE13=Dolly Parton - Puppy Love
TTITLE14=Kenny Rogers - Lay It Down
TTITLE15=Dolly Parton - Making Believe
TTITLE16=Kenny Rogers - Extra's
TTITLE17=Kenny Rogers - Extra's
TTITLE18=Kenny Rogers - Extra's
TTITLE19=Kenny Rogers - Extra's
EXTD=
EXTT0=
EXTT1=
EXTT2=
EXTT3=
EXTT4=
EXTT5=
EXTT6=
EXTT7=
EXTT8=
EXTT9=
EXTT10=
EXTT11=
EXTT12=
EXTT13=
EXTT14=
EXTT15=
EXTT16=
EXTT17=
EXTT18=
EXTT19=
PLAYORDER=
